<svg xmlns="http://www.w3.org/2000/svg" viewBox="0 0 147.67 137.9"><defs><style>.addfoto-1{font-size:16.77px;font-family:BentonSans-Bold, BentonSans;font-weight:700;}.addfoto-1,.addfoto-4{fill:#3f3f3f;}.addfoto-2{letter-spacing:-0.02em;}.addfoto-3{letter-spacing:-0.03em;}</style></defs><g id="Camada_2" data-name="Camada 2"><g id="Camada_1-2" data-name="Camada 1"><text class="addfoto-1" transform="translate(0 132.97)">ADICIONAR <tspan class="addfoto-2" x="102.06" y="0">F</tspan><tspan class="addfoto-3" x="111.59" y="0">OT</tspan><tspan x="134.6" y="0">O</tspan></text><path class="addfoto-4" d="M74.62,37.49A11,11,0,1,0,85.56,48.44,11,11,0,0,0,74.62,37.49Zm0,18.84a7.89,7.89,0,1,1,7.89-7.89A7.9,7.9,0,0,1,74.62,56.33Z"/><path class="addfoto-4" d="M123.76,9.22,43.4.1a9.66,9.66,0,0,0-7.61,2.17A9.85,9.85,0,0,0,32,9L30.39,22.33H24.57c-5.47,0-9.91,4.85-9.91,10.8v60.2a9.75,9.75,0,0,0,9.5,10.06c.13,0,.26,0,.39,0h80.83c5.93,0,10.94-4.6,10.94-10.06V89.81l1.15-.23a13.15,13.15,0,0,0,5-2.09,10.71,10.71,0,0,0,3.72-7L133,20.76A10.54,10.54,0,0,0,123.76,9.22ZM113.27,93.33c0,4.19-4.08,7-7.89,7h-81a6.72,6.72,0,0,1-6.68-6.52c0-.18,0-.38,0-.57V81.72L41.1,64.52A8.43,8.43,0,0,1,52,65.07l16,14.1a12.43,12.43,0,0,0,7.77,2.88H76a12,12,0,0,0,6.17-1.71l31.14-18ZM80.48,77.78A8.88,8.88,0,0,1,76,79a9,9,0,0,1-5.79-2.12L54,62.6a11.61,11.61,0,0,0-14.55-.51L17.71,77.86V33.13c0-4.27,3.08-7.74,6.86-7.74h80.81A8.18,8.18,0,0,1,113.27,33V58.67ZM129.9,20.25v.09L123,80a6.46,6.46,0,0,1-2.39,5,5.65,5.65,0,0,1-1.55.93,3.24,3.24,0,0,0-.37.18,1.24,1.24,0,0,0,.49-1h-2.84v-52a11.24,11.24,0,0,0-11-10.8H33.43L35,9.17a8.16,8.16,0,0,1,2.67-4.63l.12-.1A8.25,8.25,0,0,1,43.09,3l80.26,9.27A7.31,7.31,0,0,1,129.9,20.25Z"/></g></g></svg>
