<svg xmlns="http://www.w3.org/2000/svg" viewBox="0 0 166.34 166.34"><defs><style>.ativo17-1{fill:#008fd3;}.ativo17-2{opacity:0.4;}.ativo17-3{fill:#f0ab00;}.ativo17-4{opacity:0.7;}.ativo17-5{fill:#fff;}</style></defs><g id="Camada_2" data-name="Camada 2"><g id="Camada_1-2" data-name="Camada 1"><path class="ativo17-1" d="M129.44,35.87a66.93,66.93,0,1,0,17.3,64.61A66.86,66.86,0,0,0,129.44,35.87Zm-57,83.05,0,0h0L42.67,94.8l9.79-12.06,18.12,14.7,40.66-50.13,11.63,9.43Z"/><g class="ativo17-2"><path class="ativo17-3" d="M52.46,82.74l.53.43H82.16l27.11-33.44H24.2a66.75,66.75,0,0,0-8.93,33.44H52.11Z"/><path class="ativo17-3" d="M149,83.17a66.82,66.82,0,0,0-8.94-33.44H114.22l8.65,7L101.43,83.17Z"/></g><g class="ativo17-4"><polygon class="ativo17-3" points="52.85 83.06 70.58 97.44 82.24 83.06 52.85 83.06"/><path class="ativo17-3" d="M74.4,116.5h65.74A66.83,66.83,0,0,0,149,83.06H101.52Z"/><path class="ativo17-3" d="M15.27,83.06a66.67,66.67,0,0,0,8.87,33.44H69.42L42.67,94.8l9.52-11.74Z"/></g><path class="ativo17-3" d="M74.66,116.18l-2.22,2.74,0,0h0l-.56-.46-.46.57,0,0h0l-3.48-2.83H23.94a66.9,66.9,0,0,0,116.38,0Z"/><path class="ativo17-5" d="M142,24.36A83.17,83.17,0,1,0,24.36,142,83.17,83.17,0,1,0,142,24.36Zm-3.89,113.73A77.67,77.67,0,1,1,28.25,28.25,77.67,77.67,0,1,1,138.09,138.09Z"/><path class="ativo17-5" d="M70.18,93.57,52.05,78.87,38.8,95.21l31.87,25.84,2.15,1.77,53.91-66.48-15.9-12.9ZM119,57.15,72,115.07,46.54,94.4l6.32-7.79L71,101.31l40.65-50.13Z"/></g></g></svg>