<svg xmlns="http://www.w3.org/2000/svg" viewBox="0 0 164.05 187.28"><defs><style>.ativo8-1{fill:#fff;}.ativo8-2{fill:#008fd3;}.ativo8-3,.ativo8-4,.ativo8-5{fill:#f0ab00;}.ativo8-3{opacity:0.4;}.ativo8-4{opacity:0.7;}</style></defs><g id="Camada_2" data-name="Camada 2"><g id="Camada_1-2" data-name="Camada 1"><path class="ativo8-1" d="M163.32,83.55A21,21,0,0,0,131,71.7h0L98.88,35.11a21.18,21.18,0,0,0,2.53-3.51,21.07,21.07,0,1,0-31,6.21L29.49,108.48A21.06,21.06,0,1,0,40,136.88l61.77,21.63.1.62,1.17-.18,1.78.62.33-.95,1.35-.2-.1-.62,1.25.68,27.12-50.07a20.88,20.88,0,0,0,8.15,1.66,21.5,21.5,0,0,0,5.49-.72,21.06,21.06,0,0,0,14.89-25.8Zm-35.85-8.77a21,21,0,0,0-5,18.76l-24.65,7.83L88.61,41.42h0a21.15,21.15,0,0,0,6.76-3.2h0ZM67.35,25.31A16.38,16.38,0,1,1,87.41,36.89,16.4,16.4,0,0,1,67.35,25.31Zm7.08,14.9a21,21,0,0,0,8.75,1.93l.8,0,9.29,60.7L40.45,119.58a20.87,20.87,0,0,0-6.91-8.76ZM25.3,143.58a16.38,16.38,0,1,1,11.59-20.06A16.39,16.39,0,0,1,25.3,143.58Zm16.28-11.11h0a20.79,20.79,0,0,0,.21-8.4L94,107.49l7,45.78Zm64,20-7.1-46.4L123.93,98a20.79,20.79,0,0,0,6.77,8.14Zm51.56-55.27a16.38,16.38,0,0,1-30-4,16.38,16.38,0,1,1,30,4Z"/><path class="ativo8-2" d="M119.37,134.9a28,28,0,1,0,14,24.3A27.92,27.92,0,0,0,119.37,134.9Z"/><path class="ativo8-3" d="M91.28,134.9v48.59a27.85,27.85,0,0,0,14,3.79V131.11A27.85,27.85,0,0,0,91.28,134.9Z"/><path class="ativo8-4" d="M105.32,187.28a27.92,27.92,0,0,0,14.05-3.79V134.9a27.92,27.92,0,0,0-14.05-3.79Z"/><path class="ativo8-5" d="M119.37,134.9v48.59a28,28,0,0,0,0-48.59Z"/></g></g></svg>
