<svg xmlns="http://www.w3.org/2000/svg" viewBox="0 0 136.45 148.57"><defs><style>.ativo3-1{fill:#fff;}.ativo3-2{fill:#008fd3;}.ativo3-3,.ativo3-4,.ativo3-5{fill:#f0ab00;}.ativo3-3{opacity:0.4;}.ativo3-4{opacity:0.7;}</style></defs><g id="Camada_2" data-name="Camada 2"><g id="Camada_1-2" data-name="Camada 1"><path class="ativo3-1" d="M136.45,45.48h-9.1V7.58A7.59,7.59,0,0,0,119.77,0H7.58A7.59,7.59,0,0,0,0,7.58V131.9a7.59,7.59,0,0,0,7.58,7.58h4.55v9.09H33.35v-9.09H94v9.09h21.22v-9.09h4.55a7.59,7.59,0,0,0,7.58-7.58V94h9.1ZM30.32,145.54H15.16v-6.06H30.32Zm81.87,0H97v-6.06h15.16Zm12.13-13.64a4.55,4.55,0,0,1-4.55,4.55H7.58A4.55,4.55,0,0,1,3,131.9V7.58A4.55,4.55,0,0,1,7.58,3H119.77a4.55,4.55,0,0,1,4.55,4.55v37.9h-6.07V9.1h-97V21.22H12.13V36.39h9.09v66.7H12.13v15.16h9.09v12.13h97V94h6.07ZM115.22,94v33.35h-91V12.13h91V45.48H87.93V94ZM20.85,24.26v9.09H15.16V24.26Zm0,81.86v9.1H15.16v-9.1ZM133.41,91H91V48.51h42.45ZM109.16,84.9h18.19V54.58H97V84.9h12.13Zm6.06-3h-6.06V75.8h6.06Zm-6.06-15.16h6.06v6.06h-6.06Zm15.16,15.16h-6.07V75.8h6.07Zm0-9.1h-6.07V66.71h6.07Zm-6.07-15.16h6.07v6.06h-6.07Zm-9.09,0h6.06v6.06h-6.06Zm-9.1,0h6.06v6.06h-6.06Zm0,9.1h6.06v6.06h-6.06Zm0,15.16V75.8h6.06v6.07Z"/><rect class="ativo3-2" x="39.42" y="45.48" width="48.51" height="48.51" transform="translate(-6.06 133.41) rotate(-90)"/><rect class="ativo3-3" x="33.35" y="63.67" width="48.51" height="12.13" transform="translate(-12.13 127.35) rotate(-90)"/><rect class="ativo3-4" x="45.48" y="63.67" width="48.51" height="12.13" transform="translate(0 139.48) rotate(-90)"/><rect class="ativo3-5" x="57.61" y="63.67" width="48.51" height="12.13" transform="translate(12.13 151.61) rotate(-90)"/></g></g></svg>