<svg xmlns="http://www.w3.org/2000/svg" viewBox="0 0 154.68 163.65"><defs><style>.ativo4-1{fill:#008fd3;}.ativo4-2,.ativo4-3,.ativo4-4{fill:#f0ab00;}.ativo4-3{opacity:0.7;}.ativo4-4{opacity:0.4;}.ativo4-5{fill:#fff;}</style></defs><g id="Camada_2" data-name="Camada 2"><g id="Camada_1-2" data-name="Camada 1"><path class="ativo4-1" d="M83,18a9.46,9.46,0,0,1-2.11,5.79A11.12,11.12,0,0,0,78.51,31a2.73,2.73,0,0,1-.9,2,2.62,2.62,0,0,1-1.8.71H72.54A2.74,2.74,0,0,1,69.85,31a11.12,11.12,0,0,0-2.38-7.18A9.4,9.4,0,0,1,65.35,18a8.84,8.84,0,0,1,8.83-8.83h0A8.83,8.83,0,0,1,83,18ZM11.55,121.71h6.09V84.19a7.18,7.18,0,0,0-7.49-7.41l-5,0A5.37,5.37,0,0,0,0,82.4V99.26H0v11.21H7.88V85.62h3v28.5a5.45,5.45,0,0,1-5.44,5.41h0A5.36,5.36,0,0,1,0,114.06v-3.59H0v11.23H11.55ZM149.72,143H127.25l8.35-30-.85-4.87-4.87,3.08-5.2-9.59,7.6-3.69s-2.23-8-1.64-12c.64-4.28,4.59-9.14,8.93-9.14l5,0a5.36,5.36,0,0,1,5.16,5.59Zm0-30.39h-3l-5,0,0-4.5h0l-.08-15.27,0-7.2h-3l0,7.19.08,15.27h0l0,8.19a5.43,5.43,0,0,0,5.41,5.46h0a5.43,5.43,0,0,0,5.43-5.42ZM83.6,94.4l-.23-8.8h3l.22,8.8.23,8.8L87,112h17.39l.23-8.79.22-8.8.23-8.8h3l-.23,8.8-.22,8.8-.23,8.79H113V82.08a5.28,5.28,0,0,0-5.27-5.28H83.53a5.28,5.28,0,0,0-5.28,5.28h0V112h5.8l-.22-8.79ZM46.52,143H59l-1.11-16.55-1.1-16.55L55.67,93.35l-.21-3.25h3l.22,3.26,1.1,16.55.62,9.3h6.51s-.37-4-.86-9.29c-.46-5-1-11.25-1.52-16.55,0,0-1-10.24-1-11.24s-1.43-5.31-5.69-5.31H38.21c-4.26,0-5.62,4.28-5.69,5.31s-1,11.24-1,11.24C31,98.65,30.45,104.88,30,109.9c-.5,5.34-.86,9.3-.86,9.3h6.61l.62-9.3,1.1-16.55.22-3.26h3l-.22,3.25L39.33,109.9l-1.1,16.55L37.12,143h9.4Z"/><path class="ativo4-2" d="M17.64,84.19V88H10.86V85.62h-3V88H0V82.4a5.4,5.4,0,0,1,3.06-5.08,6,6,0,0,1,2.11-.52h5A7.18,7.18,0,0,1,17.64,84.19Zm20,5.9h3l-.22,3.25H55.67l-.21-3.25h3l.22,3.26H64.5s-1-10.24-1-11.24-1.43-5.31-5.69-5.31H38.21c-4.26,0-5.62,4.28-5.69,5.31s-1,11.24-1,11.24h5.95ZM74.18,9.17h0a8.83,8.83,0,0,0-8.38,6.07H82.55A8.82,8.82,0,0,0,74.18,9.17ZM144.56,76.8l-5,0c-4.34,0-8.29,4.86-8.93,9.14a23.51,23.51,0,0,0,.49,6.9h7.59l0-7.19h3l0,7.2h8V82.4A5.36,5.36,0,0,0,144.56,76.8ZM86.35,85.6h26.7V82.08a5.28,5.28,0,0,0-5.27-5.28H83.53a5.28,5.28,0,0,0-5.28,5.28h0V85.6h8.1Z"/><path class="ativo4-3" d="M65.35,18a9,9,0,0,1,.45-2.76H82.55A8.68,8.68,0,0,1,83,18a8,8,0,0,1-.7,3.39H66.05A8.19,8.19,0,0,1,65.35,18Zm73.45,90.09-.08-15.27h-7.59c.5,2.75,1.15,5.08,1.15,5.08l-7.6,3.69,5.2,9.59,4.87-3.08h4.05Zm3,0,7.95,0h0V92.82h-8ZM107.83,94.4H113V85.6h-5Zm-21.26,0h18.29l.23-8.8H86.35Zm-3.2-8.8H78.24v8.8H83.6ZM10.85,99.26h6.79V88H10.86ZM7.89,88H0V99.26H7.88ZM59.75,109.9H66c-.46-5.05-1-11-1.52-16.55H58.65ZM37.46,93.35H31.51C31,98.87,30.45,104.85,30,109.9h6.37Zm1.87,16.55H56.78L55.67,93.35H40.44Z"/><path class="ativo4-4" d="M80.89,23.79A12.53,12.53,0,0,0,79,27.55H69.41a12.31,12.31,0,0,0-1.94-3.76,14.74,14.74,0,0,1-1.42-2.4H82.3A14.71,14.71,0,0,1,80.89,23.79Zm60.9,88.8,5,0h3v3.71a5.43,5.43,0,0,1-5.43,5.42h0a5.43,5.43,0,0,1-5.41-5.46l0-8.19h-4.05l.85,4.85-3.75,13.49h17.87V108.07l-7.95,0ZM78.24,94.4v8.8h5.59l-.23-8.8Zm29.37,8.8H113V94.4h-5.21Zm-20.81,0h17.84l.22-8.8H86.57ZM7.88,110.48V99.26H0v11.21H7.88Zm3,0h6.79V99.26H10.85Zm28.48-.58-1.1,16.55H57.88l-1.1-16.55Zm-7.17,9.3h3.58l.62-9.3H30c-.5,5.52-.86,9.3-.86,9.3h3Zm28.21,0h6.51s-.37-3.77-.86-9.29H59.75Z"/><path class="ativo4-5" d="M74.18,41.54a5.1,5.1,0,0,1-5.1-5.09h3a2.13,2.13,0,0,0,4.25,0h3A5.09,5.09,0,0,1,74.18,41.54Zm-17.3,113,9.39,9.13H33.39v-3H46.52v-4.07H39.26L38.77,143h3l.37,10.64h4.4V143h3v10.64h4.45L54.35,143h3Zm-2.11,2.09H49.49v4.07H59ZM75.67,0h-3V6.34h3Zm8.57,11-2.1-2.1,4.48-4.48,2.1,2.1ZM64.12,11,59.64,6.52l2.1-2.1L66.22,8.9ZM61.74,31.41l-2.1-2.1,4.48-4.48,2.1,2.1Zm24.88,0-4.48-4.48,2.1-2.1,4.48,4.48ZM62.32,19.29C54,22.7,52.25,33.86,52.25,49.58h-3c0-10.91.59-22.64,6.46-29.19C30.57,25.1,13.48,36.69,13.48,49.58h-3c0-15.7,20.52-29,51.06-33.14l.19,1.48Zm76,30.29h-3c0-12.89-17.09-24.48-42.26-29.19,5.87,6.55,6.46,18.28,6.46,29.19h-3c0-15.72-1.71-26.88-10.07-30.29L87,17.91l.2-1.47C117.75,20.57,138.27,33.88,138.27,49.58ZM58.59,62.73v6H56.7c-.84,4.35-5.35,5.55-7.85,5.55v-3c.52,0,5-.15,5-4.07V65.79h1.76V62.7a6,6,0,0,0-1.42-3.82,4.42,4.42,0,0,0-3.29-1.17c-4.68,0-5.12,4.51-5.15,5V76.8H37.89a5,5,0,0,1-5.1-5.12V70.19h1.49A2.05,2.05,0,0,0,36.41,68c0-2.42,2.36-5,4.59-5h1.79v-.45c.14-2.71,2-7.83,8.12-7.83a7.3,7.3,0,0,1,5.42,2.07A9,9,0,0,1,58.59,62.73Zm-20.7,11.1h4.9V66H41a2.47,2.47,0,0,0-1.62,2,5,5,0,0,1-3.33,4.87A1.91,1.91,0,0,0,37.89,73.83Zm88.8,39.06,3.19-1.71-1.42-2.61-3.17,1.71a2.47,2.47,0,1,1-2.32-4.37l3.12-1.71-1.41-2.61-3.12,1.71a5.44,5.44,0,0,0,2.57,10.24A5.35,5.35,0,0,0,126.69,112.89Zm-19.31-.9-.12,4.84c1.33-.58,2.82-1.89,2.82-4.84h3c0,5.51-3.57,7.35-5.87,8l-.94,36.65H97.13v4.07h13.13v3H78l7.19-9L84.26,120c-2.29-.56-6.08-2.34-6.08-8h3c0,3.14,1.65,4.42,3,4.94L84.05,112l-.22-8.79-.23-8.8-.23-8.8h3l.22,8.8.23,8.8L87,112l1.07,41.65h6.07V118.78h3v34.86h6.22L104.41,112l.23-8.79.22-8.8.23-8.8h3l-.23,8.8-.22,8.8ZM94.16,156.61h-6.8l-3.24,4.07h10ZM10.85,99.26V85.62h-3V99.26h0v11.22h0v3.63a2.42,2.42,0,0,1-.73,1.74,2.47,2.47,0,0,1-1.75.71,2.46,2.46,0,0,1-2.45-2.48l0-3.6H0v3.58a5.36,5.36,0,0,0,5.35,5.47h0a5.45,5.45,0,0,0,5.44-5.41V99.26Zm56,19.94h-3c0,3.23-1.79,4.49-3.2,5l-.34-5h0l-.62-9.3-1.1-16.55-.22-3.26h-3l.21,3.25,1.11,16.55,1.1,16.55L59,143h3l-1.06-15.81C63.21,126.6,66.88,124.79,66.88,119.2Zm-28.65,7.25,1.1-16.55,1.11-16.55.22-3.25h-3l-.22,3.26-1.1,16.55-.62,9.3h0l-.33,5c-1.42-.47-3.24-1.71-3.25-5h-3c0,5.62,3.72,7.42,6,8L34.14,143h3Zm105.21,27.63h-3.71L139.31,143h-3l.46,12.07L130,163.65h16.45v-3H136.13l2.89-3.63h7.39V143h-3Zm3.31-41.47v3.7a2.46,2.46,0,0,1-2.46,2.46h0a2.46,2.46,0,0,1-2.45-2.49l0-3.69,0-4.5h0l-.08-15.27,0-7.2h-3l0,7.19.08,15.27h0l0,8.19a5.43,5.43,0,0,0,5.41,5.46h0a5.43,5.43,0,0,0,5.43-5.42v-3.71Zm7.93-42.44v1.48a5,5,0,0,1-5.1,5.13h-7.86V62.67c-.05-.63-.53-5-5.16-5a4.38,4.38,0,0,0-3.3,1.19,6,6,0,0,0-1.41,3.77v3.12h1.76v1.48c0,3.92,4.51,4.06,5,4.07v3c-2.5,0-7-1.2-7.85-5.55h-1.9V62.68a9,9,0,0,1,2.26-5.89,7.33,7.33,0,0,1,5.42-2.07c6.1,0,8,5.12,8.12,7.82V63h1.78c2.24,0,4.6,2.56,4.6,5a2.05,2.05,0,0,0,2.13,2.19Zm-3.27,2.67A5,5,0,0,1,148.1,68a2.48,2.48,0,0,0-1.63-2h-1.78v7.84h4.89A1.8,1.8,0,0,0,151.41,72.84Zm-134.8-16a7.33,7.33,0,0,0-5.42-2.07c-6.1,0-8,5.12-8.13,7.83V77.32a6,6,0,0,1,2.11-.52H6V62.69c0-.47.47-5,5.16-5a4.4,4.4,0,0,1,3.28,1.17,6,6,0,0,1,1.42,3.82v3.09H14.14v1.48c0,3.92-4.51,4.07-5,4.07v3c2.5,0,7-1.2,7.85-5.55h1.9v-6A9,9,0,0,0,16.61,56.81ZM102,62.64v-.07c-.14-2.71-2-7.83-8.12-7.83a7.33,7.33,0,0,0-5.42,2.07A9,9,0,0,0,86.2,62.7v6.06h1.9c.84,4.35,5.35,5.55,7.85,5.55v-3c-.21,0-5,0-5-4.07V65.79H89.17V62.67a6,6,0,0,1,1.41-3.77,4.38,4.38,0,0,1,3.3-1.19c4.63,0,5.11,4.35,5.16,5V76.8h3Zm-88.75,92,1.27-32.89h-3l-1.23,31.87H3V121.71H0v34.84H11l3.05,4.13H0v3H20Z"/></g></g></svg>
