<svg xmlns="http://www.w3.org/2000/svg" viewBox="0 0 185.57 184.43"><defs><style>.ativo16-1{fill:#fff;}.ativo16-2{fill:#008fd3;}.ativo16-3,.ativo16-4,.ativo16-5{fill:#f0ab00;}.ativo16-4{opacity:0.7;}.ativo16-5{opacity:0.4;}</style></defs><g id="Camada_2" data-name="Camada 2"><g id="Pictograms"><path class="ativo16-1" d="M113,164H.27V26h31.5V0h17V26h64V0h17V26h31.5v83.58l-2.77-1.15a37.12,37.12,0,0,0-14.35-2.86c-.68,0-1.42,0-2.26.07l-2.12.13V60h-118v83h84.9l.1,1.9A36.85,36.85,0,0,0,111.35,161ZM4.27,160H106.36a40.89,40.89,0,0,1-3.45-13H17.77V56h126v45.57h.38a41,41,0,0,1,13.12,2.13V30h-31.5V4h-9V30h-72V4h-9V30H4.27Z"/><path class="ativo16-1" d="M144.15,148a5,5,0,1,1,5-5A5,5,0,0,1,144.15,148Zm0-6a1,1,0,1,0,1,1A1,1,0,0,0,144.15,142Z"/><rect class="ativo16-1" x="134.64" y="130.31" width="4" height="14.31" transform="translate(-57.17 138.96) rotate(-45.61)"/><rect class="ativo16-1" x="142.09" y="131.47" width="25.44" height="4" transform="translate(-49.03 148.56) rotate(-45)"/><path class="ativo16-1" d="M144.15,184.43A41.43,41.43,0,1,1,185.57,143,41.48,41.48,0,0,1,144.15,184.43Zm0-78.86A37.43,37.43,0,1,0,181.57,143,37.47,37.47,0,0,0,144.15,105.57Z"/><path class="ativo16-1" d="M117,125l-2,3.46,8.3,4.79a23.75,23.75,0,0,1,2-3.46Z"/><path class="ativo16-1" d="M171.29,161l2-3.46-8.3-4.8a23.34,23.34,0,0,1-2,3.47Z"/><path class="ativo16-1" d="M129.63,113.85l-3.47,2,4.8,8.31a22.45,22.45,0,0,1,3.46-2Z"/><path class="ativo16-1" d="M158.66,172.14l3.47-2-4.8-8.3a22.39,22.39,0,0,1-3.46,2Z"/><path class="ativo16-1" d="M146.15,120.09V110.5h-4v9.59c.65-.06,1.32-.1,2-.1S145.49,120,146.15,120.09Z"/><path class="ativo16-1" d="M142.15,165.91v9.59h4v-9.59c-.66.06-1.33.09-2,.09S142.8,166,142.15,165.91Z"/><path class="ativo16-1" d="M162.13,115.85l-3.47-2-4.79,8.3a22.45,22.45,0,0,1,3.46,2Z"/><path class="ativo16-1" d="M126.16,170.14l3.47,2,4.79-8.3a22.39,22.39,0,0,1-3.46-2Z"/><path class="ativo16-1" d="M115,157.52l2,3.46,8.3-4.79a23.34,23.34,0,0,1-2-3.47Z"/><path class="ativo16-1" d="M173.29,128.48l-2-3.46-8.3,4.79a23.75,23.75,0,0,1,2,3.46Z"/><path class="ativo16-1" d="M167.06,145h9.59v-4h-9.59c.05.66.09,1.32.09,2S167.11,144.34,167.06,145Z"/><path class="ativo16-1" d="M121.23,141h-9.58v4h9.58c0-.66-.09-1.33-.09-2S121.18,141.66,121.23,141Z"/><rect class="ativo16-2" y="15" width="161.54" height="32"/><rect class="ativo16-3" x="120.37" y="15" width="41.24" height="32"/><rect class="ativo16-4" x="80.34" y="15" width="40.03" height="32"/><rect class="ativo16-5" x="40.34" y="15" width="40.03" height="32"/></g></g></svg>