<svg xmlns="http://www.w3.org/2000/svg" viewBox="0 0 233.33 232.71"><defs><style>.ativo18-1{fill:#008fd3;}.ativo18-2,.ativo18-3,.ativo18-4{fill:#f0ab00;}.ativo18-3{opacity:0.7;}.ativo18-4{opacity:0.4;}.ativo18-5{fill:#fff;}</style></defs><g id="Camada_2" data-name="Camada 2"><g id="Camada_1-2" data-name="Camada 1"><path class="ativo18-1" d="M69.24,232.64l-47.48-9.45V193.05a48.92,48.92,0,1,1,76.09-40.74v23.47H88.16V195.6a8,8,0,0,1-8.09,8H69.24Z"/><path class="ativo18-2" d="M48.93,103.44a49,49,0,0,0-46,32.32h92A49,49,0,0,0,48.93,103.44Z"/><path class="ativo18-3" d="M97.85,168.08V152.31q0-1.17-.06-2.34c0-.28,0-.55-.06-.83,0-.49-.06-1-.11-1.48,0-.33-.07-.67-.11-1s-.1-.85-.16-1.27-.11-.72-.17-1.07L97,143.17c-.07-.38-.14-.76-.22-1.13l-.24-1c-.1-.4-.19-.8-.3-1.19s-.16-.57-.24-.85c-.28-1-.58-1.93-.91-2.87l-.12-.34h-92a3.59,3.59,0,0,0-.12.35c-.33.92-.62,1.85-.89,2.79-.09.32-.19.63-.27,1s-.19.76-.28,1.14-.18.72-.25,1.08-.15.73-.22,1.1-.15.79-.22,1.19-.11.69-.16,1-.11.87-.16,1.31-.08.65-.11,1c-.05.5-.08,1-.12,1.51,0,.27,0,.54,0,.81,0,.78-.06,1.56-.06,2.35s0,1.8.08,2.69c0,.26,0,.52.05.79,0,.72.12,1.45.2,2.17,0,.39.1.78.16,1.17s.15,1.06.24,1.59.17.92.26,1.37c.06.29.12.58.19.86q.33,1.5.75,3l.09.33c.18.6.37,1.19.57,1.78Z"/><path class="ativo18-4" d="M97.85,168.08H2.59c.4,1.19.85,2.37,1.34,3.52l.12.29c.25.56.5,1.12.77,1.67,0,.08.08.16.12.24.47,1,1,1.93,1.52,2.87l.36.63c.26.45.54.89.82,1.33.18.29.37.57.56.85.41.62.84,1.23,1.28,1.83.26.35.52.71.79,1.06s.5.64.76.95c.39.47.79.94,1.19,1.4l.77.84c.44.48.9,1,1.36,1.42l.65.63c.59.56,1.18,1.12,1.8,1.65a2.75,2.75,0,0,0,.26.22c.62.54,1.27,1.05,1.92,1.56l.57.44c.72.54,1.45,1.07,2.21,1.57v7.36h64.8a8.35,8.35,0,0,0,1.16-2.19.14.14,0,0,1,0-.06A7.45,7.45,0,0,0,88,197l0-.21a7.88,7.88,0,0,0,.1-1.2V175.78h9.69Z"/><path class="ativo18-5" d="M152.24,216.8V194.89h-6.68a10.2,10.2,0,0,1-10.2-10.2V139.14A10.2,10.2,0,0,1,145.56,129h76.9a10.2,10.2,0,0,1,10.19,10.19v45.55a10.2,10.2,0,0,1-10.19,10.2H174.14ZM145.56,134a5.15,5.15,0,0,0-5.15,5.14v45.55a5.16,5.16,0,0,0,5.15,5.15h11.73v14.77L172,189.86l1.07,0h49.36a5.15,5.15,0,0,0,5.14-5.15V139.14a5.14,5.14,0,0,0-5.14-5.14Z"/><path class="ativo18-5" d="M209.44,161.94a15.57,15.57,0,0,0,.15-1.86v-.19c0-1.13.07-4.54-3.1-5.6a18.42,18.42,0,0,0-5.14-.4l-1.8,0,.12-.36a29.31,29.31,0,0,0,1-3.16c.77-3.46.24-5.91-1.76-8.21a4.71,4.71,0,0,0-3.53-1.85c-2.24,0-3.91,2-4.15,4.85a10.65,10.65,0,0,1-2.55,5.33c-.42.53-.84,1-1.24,1.51a16,16,0,0,0-3.61,5.89,10.4,10.4,0,0,0-7.35-3.88H160.65v28.49h14.84c2.85,0,8.55,0,9.33-5a30.32,30.32,0,0,1,3.88.79,39.17,39.17,0,0,0,9.21,1.09,9.3,9.3,0,0,0,2.48-.22l.3-.09c1.75-.48,5-1.38,6.11-3.89a10.08,10.08,0,0,0,.75-2.35,6.92,6.92,0,0,0,1.5-3.33,9,9,0,0,0,0-2.17,15.67,15.67,0,0,0,.64-2.58A5.66,5.66,0,0,0,209.44,161.94Zm-29.58,14.35a1.83,1.83,0,0,1-.07.58c-.09.09-.69.56-4.3.56H165.7V159h10.73c1,0,3.31,1.34,3.43,2.06Zm24.26-10.06-.49.74.44.9a3.84,3.84,0,0,1,0,1,2.63,2.63,0,0,1-.66,1l-1,.66.25,1.29a4.45,4.45,0,0,1-.33,1.14,7.44,7.44,0,0,1-2.9,1.18l-.27.08a8.69,8.69,0,0,1-1.17.05,35.11,35.11,0,0,1-7.78-.88,37.6,37.6,0,0,0-5.22-1V163.6a6.68,6.68,0,0,0,3.69-4.23,11.37,11.37,0,0,1,2.65-4.14c.44-.52.89-1.06,1.35-1.64a17.41,17.41,0,0,0,3.3-6.2,7.43,7.43,0,0,1-.21,1.86,25.56,25.56,0,0,1-.79,2.62c-.66,1.89-1.88,5.43,1.34,6.64a16.88,16.88,0,0,0,5.09.43c1,0,2.44,0,3.2.08,0,.27,0,.61,0,.79v.27a13,13,0,0,1-.2,1.8l-.41.85.75.9a.73.73,0,0,1,0,.38A12.07,12.07,0,0,1,204.12,166.23Z"/><path class="ativo18-5" d="M66.26,86.05V60.54C52,54.31,43.6,44.24,43.6,33.38,43.6,15,68,0,98.08,0s54.47,15,54.47,33.38S128.11,66.76,98.08,66.76A89.91,89.91,0,0,1,86.32,66Zm31.82-81c-27.26,0-49.43,12.71-49.43,28.33,0,9.13,7.88,17.78,21.09,23.15l1.57.64V73.86L84.54,60.63l1.26.19a84.63,84.63,0,0,0,12.28.89c27.25,0,49.42-12.7,49.42-28.33S125.33,5.05,98.08,5.05Z"/><path class="ativo18-5" d="M106.24,16.07a11.4,11.4,0,0,0-8.14,3,11.53,11.53,0,0,0-8.18-3c-6.64,0-11.46,5.41-11.46,12.88,0,12.47,17.69,22.34,18.45,22.75l1.19.67,1.25-.67c.75-.42,18.35-10.29,18.35-22.75C117.7,21.48,112.88,16.07,106.24,16.07ZM98.1,46.57c-5-3-14.59-10.38-14.59-17.62,0-4.69,2.58-7.83,6.41-7.83a8.84,8.84,0,0,1,1.89.2,8.55,8.55,0,0,1,6.27,5.32,8.52,8.52,0,0,1,6.36-5.34l.61-.1h.06a10.08,10.08,0,0,1,1.13-.07c3.84,0,6.41,3.14,6.41,7.83C112.65,36.17,103.06,43.53,98.1,46.57Z"/><path class="ativo18-5" d="M152.35,122.31V100.44h-.21a16.65,16.65,0,0,1-.25-33.3,16.44,16.44,0,0,1,14.92-13.07,27.57,27.57,0,0,1,52.56,5.56,21,21,0,0,1-7.05,40.81H174.23Zm-.21-50.12a11.6,11.6,0,1,0,0,23.2h5.27v14.73l14.73-14.73h40.18A16,16,0,0,0,216.46,64l-1.64-.45-.21-1.68A22.52,22.52,0,0,0,171,57.38l-.61,1.78-1.88-.07-.44,0a11.41,11.41,0,0,0-11.41,10.86l-.13,2.77-2.75-.39A10.74,10.74,0,0,0,152.14,72.19Z"/><path class="ativo18-5" d="M203.4,69.59v-5h-4.9L200,57.49h-5.16l-1.45,7.05h-4.12l1.46-7.05h-5.16l-1.45,7.05h-6.26v5H183l-.82,4h-5.95v5.05h4.9l-1.46,7.06h5.16l1.46-7.06h4.12L189,85.68h5.16l1.46-7.06h6.25V73.57h-5.21l.82-4Zm-11.93,4h-4.11l.82-4h4.12Z"/><polygon class="ativo18-5" points="83.01 161.6 69.62 154.87 83.01 148.14 85.28 152.65 80.86 154.87 85.28 157.09 83.01 161.6"/><path class="ativo18-5" d="M98.1,152.25a49,49,0,0,0-48.92-48.88v5a43.94,43.94,0,0,1,43.87,43.83v18.54H83.36v24.75a3,3,0,0,1-3,3H64.44v28l-15.26-3v5.15l20.31,4.05V203.63H80.32a8.1,8.1,0,0,0,8.09-8.09v-19.7h9.7Z"/></g></g></svg>
