<svg xmlns="http://www.w3.org/2000/svg" viewBox="0 0 157.95 157.96"><defs><style>.ativo7-1{fill:#fff;}.ativo7-2{fill:#008fd3;}.ativo7-3,.ativo7-4,.ativo7-5{fill:#f0ab00;}.ativo7-4{opacity:0.7;}.ativo7-5{opacity:0.4;}</style></defs><g id="Camada_2" data-name="Camada 2"><g id="Camada_1-2" data-name="Camada 1"><path class="ativo7-1" d="M79,158a79,79,0,1,1,79-79A79.07,79.07,0,0,1,79,158ZM79,4a75,75,0,1,0,75,75A75.06,75.06,0,0,0,79,4Z"/><path class="ativo7-2" d="M64.77,120h0a7.62,7.62,0,0,1-5.89-3.12c-.33-.43-1.82-2.61-1.82-8V43a11.25,11.25,0,0,1,1.68-5.53l.08-.11a7.05,7.05,0,0,1,5.74-3.24c2,0,4.2.93,6.65,2.86l44.35,33.8.1.1c4.28,4.28,4.28,8.1,0,12.38l-.2.18L71.19,117.2C69,119.07,66.82,120,64.77,120Z"/><path class="ativo7-3" d="M58.88,116.89A7.62,7.62,0,0,0,64.77,120h0c2,0,4.18-.94,6.42-2.81l1.35-1V38l-1.33-1c-2.45-1.93-4.63-2.86-6.65-2.86a7.05,7.05,0,0,0-5.74,3.24l-.08.11a11.31,11.31,0,0,0-1.66,5.3v67C57.22,114.5,58.56,116.48,58.88,116.89Z"/><polygon class="ativo7-4" points="88.01 104.38 88.01 49.79 72.55 38 72.55 116.17 88.01 104.38"/><polygon class="ativo7-5" points="103.48 92.58 103.48 61.58 88.01 49.79 88.01 104.37 103.48 92.58"/></g></g></svg>
