<svg xmlns="http://www.w3.org/2000/svg" viewBox="0 0 184 201.65"><defs><style>.ativo11-1{fill:#fff;}.ativo11-2{fill:#008fd3;}.ativo11-3,.ativo11-4,.ativo11-5{fill:#f0ab00;}.ativo11-4{opacity:0.7;}.ativo11-5{opacity:0.4;}</style></defs><g id="Camada_2" data-name="Camada 2"><g id="Camada_1-2" data-name="Camada 1"><path class="ativo11-1" d="M162.5,32.14,130.36,0H22V91.46h4V4H127.57l0,29.45a2,2,0,0,0,2,2H159v56h4v-58A2,2,0,0,0,162.5,32.14Zm-31-.69,0-24.59v0l24.62,24.61Zm30.89.59L131,.6l-.1-.08L162.5,32.14Zm-40,21.39v38h-4v-38a28.69,28.69,0,0,0-57.38,0V73.35h8.77c0,7.61,1.3,13.6,4,18.1h-4.5a37.29,37.29,0,0,1-3.4-14.11H57V53.43a32.69,32.69,0,0,1,65.38,0ZM84.06,57.07l-8.26,6.2-2.4-3.2,4-3-4-3,2.4-3.2Zm-32.5,74.51v32a2,2,0,0,1-4,0v-32Zm-25.56,0v9.92a2,2,0,0,1-4,0v-9.92Zm12.78,0v21.24a2,2,0,0,1-4,0V131.58Zm26.83,0v44a2,2,0,0,1-4,0v-44Zm28.1,0v68.07a2,2,0,0,1-4,0V131.58Zm-14,0v56.07a2,2,0,0,1-4,0V131.58Zm56.05,0V163.7a2,2,0,0,1-4,0V131.58Zm14.29,0v20.08a2,2,0,0,1-4,0V131.58Zm13,0v10a2,2,0,1,1-4,0v-10Zm-41.35,0v44.15a2,2,0,0,1-4,0V131.58Zm-14.05,0v56.17a2,2,0,0,1-4,0V131.58Z"/><path class="ativo11-2" d="M175.9,91.46H8.48C3.8,91.46,0,95.56,0,100.63v17.72c0,5.06,3.8,9.16,8.48,9.16H175.9a8.09,8.09,0,0,0,8.1-8.1V99.56A8.1,8.1,0,0,0,175.9,91.46ZM28,117.59H18a2,2,0,1,1,0-4H28a2,2,0,1,1,0,4Zm.91-12.43a2,2,0,0,1-.91.22H18a2,2,0,1,1,0-4H28a2,2,0,0,1,.91,3.78Z"/><path class="ativo11-3" d="M184,99.56v19.85a8.09,8.09,0,0,1-8.1,8.1H138V91.46h37.9A8.1,8.1,0,0,1,184,99.56Z"/><rect class="ativo11-4" x="92" y="91.46" width="46" height="36.05"/><rect class="ativo11-5" x="46" y="91.46" width="46" height="36.05"/></g></g></svg>
