<svg xmlns="http://www.w3.org/2000/svg" viewBox="0 0 166.34 166.34"><defs><style>.ativo5-1{fill:#008fd3;}.ativo5-2,.ativo5-3,.ativo5-4{fill:#f0ab00;}.ativo5-3{opacity:0.7;}.ativo5-4{opacity:0.4;}.ativo5-5{fill:#fff;}</style></defs><g id="Camada_2" data-name="Camada 2"><g id="Camada_1-2" data-name="Camada 1"><path class="ativo5-1" d="M130.47,35.87a66.93,66.93,0,1,0,17.3,64.61A66.86,66.86,0,0,0,130.47,35.87Zm-35.59,97H71.47V109.49H94.88Zm-.79-33.12H72.26L69,28.76H97.39Z"/><path class="ativo5-2" d="M94.88,132.9H71.47V116.61H25.26a66.86,66.86,0,0,0,115.82,0H94.88Z"/><path class="ativo5-3" d="M94.86,83.17l-.77,16.61H72.26l-.78-16.61H16.29a66.51,66.51,0,0,0,9,33.44H71.47v-7.12H94.88v7.12h46.2a66.61,66.61,0,0,0,9-33.44Z"/><path class="ativo5-4" d="M94.86,83.17l1.56-33.44h44.66a66.58,66.58,0,0,1,9,33.44ZM69.93,49.73H25.26a66.48,66.48,0,0,0-9,33.44H71.48Z"/><path class="ativo5-5" d="M83.17,166.34a83.17,83.17,0,0,1-58.81-142A83.17,83.17,0,1,1,142,142,82.63,82.63,0,0,1,83.17,166.34Zm0-160.84A77.67,77.67,0,0,0,28.25,138.09,77.67,77.67,0,1,0,138.09,28.25,77.17,77.17,0,0,0,83.17,5.5ZM94.88,132.9V109.49H71.47V132.9ZM89.38,115V127.4H77V115ZM72.26,99.78H94.09l.77-16.61,1.56-33.44,1-21H69l1,21,1.55,33.44Zm2.45-65.52H91.63l-.72,15.47L89.36,83.17l-.52,11.11H77.51L77,83.17,75.43,49.73Z"/></g></g></svg>
