<svg xmlns="http://www.w3.org/2000/svg" viewBox="0 0 130.02 240.06"><defs><style>.ativo10-1{fill:#008fd3;}.ativo10-2,.ativo10-3,.ativo10-4{fill:#f0ab00;}.ativo10-3{opacity:0.7;}.ativo10-4{opacity:0.4;}.ativo10-5{fill:#fff;}</style></defs><g id="Camada_2" data-name="Camada 2"><g id="Camada_1-2" data-name="Camada 1"><path class="ativo10-1" d="M120,80l.06-28h0a8,8,0,0,0-8-8l-16,0S80,54,80,70.53V80l.1.41L60.36,100.18,73.9,113.71l11.57-11.57L88.91,116H89L79,152h0L68,188h52V131l-4,10h-8.75L102,137.92V128h18V116h0V80Z"/><path class="ativo10-2" d="M96,44.06l16,0a8,8,0,0,1,8,8h0L120,80H80v-9.5C80,54,96,44.06,96,44.06Z"/><path class="ativo10-3" d="M120,116V80H84.27L84,76.54,80.51,80H80l.1.41L60.36,100.18,73.9,113.71l11.57-11.57L88.91,116Z"/><polygon class="ativo10-4" points="120 128.03 120 116.03 89 116.03 79 152.03 120 152.03 120 131.03 116 141.03 107.25 141.03 102 137.92 102 128.03 120 128.03"/><path class="ativo10-1" d="M54.37,100.14,40,92V59.86C40,50.62,33.28,44,24,44l-13,0C4.52,44.5,0,49.35,0,56V68H0v24H0v48H40V114.12l5.2,3Z"/><rect class="ativo10-3" x="0.04" y="68.06" width="39.91" height="24"/><polygon class="ativo10-4" points="54.34 100.14 38.62 91.22 38.22 92.06 0.04 92.06 0.04 116.03 39.95 116.03 39.95 114.13 45.16 117.08 54.34 100.14"/><path class="ativo10-2" d="M0,56c0-6.68,4.52-11.53,11-12l13,0c9.27,0,16,6.58,16,15.82V68H0Z"/><path class="ativo10-5" d="M71.36,110.61l2.83,2.83-3.82,3.82a9.5,9.5,0,0,1-6.74,2.81h0a9.54,9.54,0,0,1-3.93-.85A9.26,9.26,0,0,1,57,120.41a9.51,9.51,0,0,1-7.25-.92l-4.69-2.67,2-3.47,4.7,2.66a5.55,5.55,0,1,0,5.52-9.64l-4.66-2.65h0L30.23,91l-7.77-23.5,3.8-1.25,7.28,22,21,11.89h0l3.76,2.14,2.42-2.42,2.82,2.83-2,2a9.55,9.55,0,0,1,1.26,11.22l0,0a4.82,4.82,0,0,0,.86.08,5.48,5.48,0,0,0,3.92-1.64ZM130,34a10.28,10.28,0,0,1-10,10H104V16a12,12,0,0,0-24,0V24.1h4v2.22a9.77,9.77,0,0,0,9.76,9.76h2.29v4H93.78a13.77,13.77,0,0,1-13.64-12H76V16a16,16,0,0,1,32,0v0h4a10.29,10.29,0,0,1,10,10h0A6.2,6.2,0,0,0,128,32h2Zm-4.31,1.71A10.31,10.31,0,0,1,118.08,26h0a6.35,6.35,0,0,0-6-6h-4V40h12A6.33,6.33,0,0,0,125.71,35.74ZM15.94,16a12,12,0,0,1,24,0v8.08h-4v2.22A9.78,9.78,0,0,1,26.16,36H23.88v4h2.28a13.79,13.79,0,0,0,13.65-12H44V16a16,16,0,0,0-32,0V44h4ZM116,133.93a6,6,0,0,1-12,0V56h-4v77.9a10,10,0,0,0,20,0V128h-4Zm-8,86.15H99.83L97.64,188h-4l2.28,33.43-14.16,18.6H112v-4H89.83l9.12-12h13V188h-4ZM33.59,140h-4l-5.47,80.05H4V140H0v84H2.5v.05H25l9.12,12H8v4H42.19L28,221.46Z"/></g></g></svg>
