<svg xmlns="http://www.w3.org/2000/svg" viewBox="0 0 98.33 140.55"><defs><style>.ativo15-1{fill:#fff;}.ativo15-2{fill:none;}.ativo15-3{fill:#008fd3;}.ativo15-4{opacity:0.4;}.ativo15-5{fill:#f0ab00;}.ativo15-6{opacity:0.7;}</style></defs><g id="Camada_2" data-name="Camada 2"><g id="Pictograms"><path class="ativo15-1" d="M49.16,140.55,7.67,75.47a49.74,49.74,0,0,1-3.6-6.74A49.16,49.16,0,1,1,98.33,49.16a48.86,48.86,0,0,1-4,19.54A50.05,50.05,0,0,1,91,75L50.85,137.9ZM49.17,4A45.14,45.14,0,0,0,7.74,67.13a44,44,0,0,0,3.31,6.19l38.11,59.79c7.56-11.86,38-59.54,38.39-60.23A45.1,45.1,0,0,0,49.17,4Z"/><path class="ativo15-2" d="M25.25,63.48a27.56,27.56,0,0,0,47.75,0Z"/><path class="ativo15-3" d="M49.13,22.12A27.58,27.58,0,1,0,76.7,49.7,27.57,27.57,0,0,0,49.13,22.12Z"/><g class="ativo15-4"><path class="ativo15-5" d="M21.56,49.7a27.34,27.34,0,0,0,3.69,13.77H73A27.44,27.44,0,0,0,76.7,49.7v0H21.56Z"/></g><g class="ativo15-6"><path class="ativo15-5" d="M25.26,35.89a27.42,27.42,0,0,0-3.7,13.79H76.7A27.43,27.43,0,0,0,73,35.89Z"/></g><path class="ativo15-5" d="M49.13,22.12A27.55,27.55,0,0,0,25.26,35.9H73A27.54,27.54,0,0,0,49.13,22.12Z"/></g></g></svg>