<svg xmlns="http://www.w3.org/2000/svg" viewBox="0 0 360.58 360.58"><defs><style>.blankUser-1{fill:#f9ede0;}.blankUser-2{fill:#dadada;stroke:#dadada;stroke-miterlimit:10;stroke-width:0.71px;}.blankUser-3{fill:#3f3f3f;opacity:0.5;}</style></defs><g id="Camada_2" data-name="Camada 2"><g id="Camada_1-2" data-name="Camada 1"><path class="blankUser-1" d="M237.58,350.86c-1.87.63-3.76,1.24-5.65,1.81C233.83,352.1,235.71,351.48,237.58,350.86Z"/><path class="blankUser-1" d="M247,347.41c-2,.8-4,1.6-6.1,2.33C242.94,349,245,348.21,247,347.41Z"/><circle class="blankUser-2" cx="180.29" cy="180.29" r="179.94"/><path class="blankUser-1" d="M228.3,353.7q-2.76.76-5.56,1.45Q225.55,354.46,228.3,353.7Z"/><path class="blankUser-1" d="M167.25,359.71c-2.19-.16-4.38-.33-6.55-.56C162.87,359.38,165.06,359.55,167.25,359.71Z"/><path class="blankUser-1" d="M137.83,355.14c-1.86-.45-3.71-.94-5.55-1.45Q135,354.47,137.83,355.14Z"/><path class="blankUser-1" d="M157,358.68c-2-.26-3.93-.53-5.88-.84C153.05,358.15,155,358.41,157,358.68Z"/><path class="blankUser-1" d="M180.29,360.23c-3.31,0-6.6-.11-9.86-.28C173.69,360.12,177,360.23,180.29,360.23Z"/><path class="blankUser-1" d="M147.26,357.15c-1.88-.35-3.76-.72-5.62-1.13C143.5,356.43,145.38,356.8,147.26,357.15Z"/><path class="blankUser-1" d="M111,346.37q-4.2-1.77-8.29-3.71C105.4,344,108.17,345.2,111,346.37Z"/><path class="blankUser-1" d="M119.7,349.74c-2.06-.74-4.09-1.53-6.11-2.33C115.61,348.21,117.64,349,119.7,349.74Z"/><path class="blankUser-1" d="M190.16,360c-3.27.17-6.56.28-9.87.28C183.6,360.23,186.89,360.12,190.16,360Z"/><path class="blankUser-1" d="M199.88,359.15c-2.17.23-4.36.4-6.55.56C195.52,359.55,197.71,359.38,199.88,359.15Z"/><path class="blankUser-1" d="M219,356c-1.87.41-3.74.78-5.63,1.13C215.2,356.8,217.08,356.43,219,356Z"/><path class="blankUser-1" d="M209.48,357.83c-1.94.32-3.91.58-5.87.84C205.57,358.41,207.54,358.15,209.48,357.83Z"/><path class="blankUser-1" d="M257.87,342.67q-4.06,1.95-8.25,3.7C252.41,345.2,255.16,344,257.87,342.67Z"/><path class="blankUser-1" d="M128.66,352.67c-1.91-.57-3.79-1.19-5.66-1.81C124.87,351.48,126.75,352.1,128.66,352.67Z"/><path class="blankUser-1" d="M249.62,346.37c-.87.36-1.75.68-2.63,1C247.86,347.05,248.75,346.73,249.62,346.37Z"/><path class="blankUser-1" d="M258.12,342.56l-.25.11A1.36,1.36,0,0,0,258.12,342.56Z"/><path class="blankUser-1" d="M141.63,356c-1.27-.28-2.54-.57-3.8-.88C139.09,355.45,140.36,355.74,141.63,356Z"/><path class="blankUser-1" d="M151.1,357.83c-1.29-.21-2.57-.45-3.84-.68C148.54,357.38,149.81,357.63,151.1,357.83Z"/><path class="blankUser-1" d="M170.43,360c-1.07-.06-2.12-.17-3.18-.24C168.32,359.78,169.36,359.89,170.43,360Z"/><path class="blankUser-1" d="M160.7,359.15c-1.24-.14-2.48-.31-3.72-.47C158.22,358.84,159.46,359,160.7,359.15Z"/><path class="blankUser-1" d="M102.68,342.66l-.22-.09Z"/><path class="blankUser-1" d="M193.33,359.71c-1.06.07-2.11.18-3.17.24C191.22,359.89,192.27,359.78,193.33,359.71Z"/><path class="blankUser-1" d="M231.93,352.67c-1.21.36-2.42.69-3.63,1C229.51,353.36,230.72,353,231.93,352.67Z"/><path class="blankUser-1" d="M240.89,349.74c-1.1.39-2.2.75-3.3,1.12C238.69,350.49,239.79,350.13,240.89,349.74Z"/><path class="blankUser-1" d="M113.6,347.41c-.88-.35-1.77-.68-2.63-1C111.83,346.73,112.72,347.05,113.6,347.41Z"/><path class="blankUser-1" d="M123,350.86c-1.1-.37-2.21-.73-3.3-1.12C120.79,350.13,121.89,350.49,123,350.86Z"/><path class="blankUser-1" d="M203.6,358.68c-1.24.16-2.47.34-3.72.47C201.13,359,202.36,358.84,203.6,358.68Z"/><path class="blankUser-1" d="M222.75,355.14c-1.26.3-2.53.59-3.8.87C220.22,355.74,221.49,355.45,222.75,355.14Z"/><path class="blankUser-1" d="M213.32,357.15c-1.28.23-2.55.48-3.84.68C210.77,357.63,212,357.38,213.32,357.15Z"/><path class="blankUser-1" d="M132.28,353.7c-1.21-.34-2.42-.67-3.62-1C129.86,353,131.07,353.36,132.28,353.7Z"/><path class="blankUser-3" d="M221.48,192.66a74.46,74.46,0,1,0-82.38,0h0A142.88,142.88,0,0,0,41.73,295.07h0c2,2.36,4,4.67,6.08,6.93.5.56,1,1.08,1.54,1.62,1.6,1.7,3.22,3.38,4.89,5,.68.67,1.39,1.32,2.09,2,1.54,1.46,3.09,2.91,4.68,4.32L63.39,317q2.34,2,4.74,3.92l2.55,2q2.43,1.88,4.94,3.66c.87.61,1.72,1.24,2.59,1.84,1.76,1.22,3.56,2.38,5.36,3.54.81.51,1.61,1.05,2.43,1.56,2.08,1.28,4.2,2.51,6.35,3.71.56.32,1.11.66,1.68,1,2.77,1.51,5.58,3,8.43,4.34l.22.09c2.72,1.3,5.49,2.54,8.29,3.71.86.36,1.75.68,2.63,1,2,.81,4,1.6,6.1,2.33,1.09.4,2.2.75,3.3,1.12,1.87.63,3.76,1.25,5.66,1.81,1.2.36,2.41.7,3.62,1,1.84.51,3.69,1,5.56,1.45,1.26.3,2.52.59,3.8.87,1.86.41,3.74.79,5.62,1.13,1.28.24,2.55.48,3.84.69,2,.31,3.91.58,5.88.83,1.24.16,2.48.34,3.72.47,2.17.24,4.36.41,6.55.56,1.07.08,2.11.19,3.18.25,3.26.18,6.55.29,9.86.29s6.6-.11,9.87-.28c1.06-.06,2.11-.17,3.17-.24,2.19-.16,4.38-.33,6.55-.56,1.25-.14,2.48-.31,3.72-.47,2-.26,3.93-.53,5.88-.84,1.28-.21,2.56-.45,3.84-.68,1.88-.35,3.76-.72,5.63-1.13,1.27-.28,2.53-.57,3.79-.88,1.86-.45,3.71-.94,5.56-1.44,1.21-.34,2.42-.67,3.63-1q2.85-.87,5.65-1.82c1.1-.37,2.21-.72,3.3-1.11,2.05-.74,4.08-1.53,6.1-2.34.88-.34,1.77-.67,2.64-1,2.78-1.17,5.54-2.39,8.25-3.69l.25-.12q4.28-2.06,8.43-4.33c.57-.31,1.12-.65,1.69-1,2.14-1.2,4.26-2.43,6.34-3.72.82-.5,1.62-1,2.43-1.55,1.8-1.16,3.6-2.33,5.36-3.54.87-.6,1.72-1.22,2.59-1.84q2.51-1.8,4.94-3.66c.86-.66,1.7-1.33,2.55-2q2.4-1.92,4.74-3.92c.8-.68,1.6-1.37,2.38-2.07q2.39-2.11,4.68-4.32c.7-.66,1.41-1.32,2.1-2,1.66-1.63,3.28-3.31,4.88-5,.51-.55,1-1.07,1.54-1.62,2.08-2.26,4.12-4.57,6.08-6.94h0A142.86,142.86,0,0,0,221.48,192.66Z"/></g></g></svg>
