<svg xmlns="http://www.w3.org/2000/svg" viewBox="0 0 93.62 76.33"><defs><style>.cast-1{fill:#f0ab00;}</style></defs><g id="Camada_2" data-name="Camada 2"><g id="Camada_1-2" data-name="Camada 1"><path class="cast-1" d="M0,24.24V11.93A11.94,11.94,0,0,1,11.93,0H81.69A11.94,11.94,0,0,1,93.62,11.93V64.4A12,12,0,0,1,81.69,76.33H53.36a3,3,0,0,1,0-6H81.69a6,6,0,0,0,6-6V11.93a6,6,0,0,0-6-6H11.93a6,6,0,0,0-6,6V24.24a3,3,0,0,1-6,0Z"/><path class="cast-1" d="M36.4,74.93a3.26,3.26,0,0,1-3.26-3.26A29.27,29.27,0,0,0,3.91,42.44a3.26,3.26,0,0,1,0-6.52A35.79,35.79,0,0,1,39.66,71.67,3.26,3.26,0,0,1,36.4,74.93Z"/><path class="cast-1" d="M24.5,74.93a3.26,3.26,0,0,1-3.26-3.26A17.35,17.35,0,0,0,3.91,54.34a3.26,3.26,0,1,1,0-6.52A23.88,23.88,0,0,1,27.76,71.67,3.26,3.26,0,0,1,24.5,74.93Z"/><path class="cast-1" d="M13.18,74.93a3.26,3.26,0,0,1-3.26-3.26,6,6,0,0,0-6-6,3.26,3.26,0,1,1,0-6.52A12.54,12.54,0,0,1,16.44,71.67,3.26,3.26,0,0,1,13.18,74.93Z"/></g></g></svg>
