<svg xmlns="http://www.w3.org/2000/svg" viewBox="0 0 47.59 47.59"><defs><style>.discover-1{fill:#dadada;}</style></defs><g id="Camada_2" data-name="Camada 2"><g id="Camada_1-2" data-name="Camada 1"><path class="discover-1" d="M46.87,23.08H43V17.64a5.33,5.33,0,0,0-5.33-5.33H35.28V3.79A3.79,3.79,0,0,0,31.49,0H9.94A3.79,3.79,0,0,0,6.15,3.79v11.6H3.79A3.79,3.79,0,0,0,0,19.18a3.75,3.75,0,0,0,1.82,3.23l.61.38-.36.61a3.79,3.79,0,0,0,1.29,5.17l.61.37-.37.62a3.81,3.81,0,0,0,1.3,5.17l.61.37-.37.61a3.85,3.85,0,0,0-.52,1.93,3.79,3.79,0,0,0,1.29,2.85l.24.21v3.1a3.79,3.79,0,0,0,3.79,3.79H31.49a3.81,3.81,0,0,0,3.79-3.79V41.43h2.36a5.33,5.33,0,0,0,5.18-4.06l.13-.56h3.92a.71.71,0,0,0,.72-.71V23.79A.71.71,0,0,0,46.87,23.08ZM13.73,1.43h14V3.79a2.37,2.37,0,0,1-2.37,2.36H16.1a2.37,2.37,0,0,1-2.37-2.36ZM1.43,19.18a2.37,2.37,0,0,1,2.36-2.37H6.15v4.73H3.79A2.36,2.36,0,0,1,1.43,19.18ZM3,25.33A2.37,2.37,0,0,1,5.33,23H9.94a2.37,2.37,0,1,1,0,4.73H5.33A2.37,2.37,0,0,1,3,25.33ZM5.2,33.16h0a2.33,2.33,0,0,1-.7-1.67,2.37,2.37,0,0,1,2.37-2.37H9.94a2.37,2.37,0,1,1,0,4.73H6.87A2.34,2.34,0,0,1,5.2,33.16ZM6,37.64A2.37,2.37,0,1,1,8.41,40,2.37,2.37,0,0,1,6,37.64ZM33.85,43.8a2.36,2.36,0,0,1-2.36,2.36H9.94A2.36,2.36,0,0,1,7.58,43.8V41.42h.83a3.79,3.79,0,0,0,3.79-3.79,3.86,3.86,0,0,0-.53-1.93l-.37-.61.61-.37a3.81,3.81,0,0,0,.81-5.83l-.47-.49.46-.5a3.75,3.75,0,0,0,1-2.58,3.79,3.79,0,0,0-3.79-3.79H7.58V3.79A2.36,2.36,0,0,1,9.94,1.43h2.37V3.79A3.79,3.79,0,0,0,16.1,7.58h9.23a3.79,3.79,0,0,0,3.79-3.79V1.43h2.37a2.36,2.36,0,0,1,2.36,2.36v8.52H25.33a.71.71,0,0,0-.71.71A8.42,8.42,0,0,0,33,21.43h.82Zm12.31-8.41h-3.9a.71.71,0,0,0-.72.71A3.91,3.91,0,0,1,37.64,40H35.28V20.72a.72.72,0,0,0-.72-.72H33a7,7,0,0,1-6.8-5.37l-.21-.9H37.64a3.91,3.91,0,0,1,3.9,3.91v6.15a.72.72,0,0,0,.72.72h3.9Z"/><path class="discover-1" d="M23.79,40H17.64a.71.71,0,0,0,0,1.42h6.15a.71.71,0,1,0,0-1.42Z"/></g></g></svg>
