<svg xmlns="http://www.w3.org/2000/svg" viewBox="0 0 47.36 47.66"><defs><style>.eventos-1{fill:#dadada;}</style></defs><g id="Camada_2" data-name="Camada 2"><g id="Camada_1-2" data-name="Camada 1"><path class="eventos-1" d="M15.3,44.59H6.42a4.93,4.93,0,0,1-4.93-4.92V10.19A4.93,4.93,0,0,1,6.42,5.27h3.5v3a.75.75,0,1,0,1.49,0v-3H22.2v3a.75.75,0,0,0,.75.75.74.74,0,0,0,.74-.75v-3H34.58v3a.75.75,0,1,0,1.49,0v-3h3.6a4.93,4.93,0,0,1,4.92,4.92V15.4a.75.75,0,0,0,1.5,0V10.19a6.43,6.43,0,0,0-6.42-6.41h-3.6v-3a.75.75,0,1,0-1.49,0v3H23.69v-3A.74.74,0,0,0,23,0a.75.75,0,0,0-.75.75v3H11.41v-3a.75.75,0,1,0-1.49,0v3H6.42A6.43,6.43,0,0,0,0,10.19V39.67a6.42,6.42,0,0,0,6.42,6.41H15.3a.74.74,0,0,0,.75-.74A.75.75,0,0,0,15.3,44.59Z"/><path class="eventos-1" d="M34.27,21.47A13.1,13.1,0,1,0,47.36,34.56,13.11,13.11,0,0,0,34.27,21.47Zm0,24.59a11.5,11.5,0,1,1,11.49-11.5A11.51,11.51,0,0,1,34.27,46.06Z"/><path class="eventos-1" d="M37.8,33.76H35.07V29.57a.8.8,0,0,0-1.6,0v5a.8.8,0,0,0,.8.8H37.8a.8.8,0,0,0,0-1.6Z"/></g></g></svg>