<svg xmlns="http://www.w3.org/2000/svg" viewBox="0 0 46.5 46.08"><defs><style>.live-1{fill:#dadada;}</style></defs><g id="Camada_2" data-name="Camada 2"><g id="Camada_1-2" data-name="Camada 1"><path class="live-1" d="M22.3,27.49V45.12a.94.94,0,0,0,.95,1h0a1,1,0,0,0,.95-1V27.49c-.31,0-.63.05-.95.05S22.61,27.52,22.3,27.49Z"/><path class="live-1" d="M1.9,16.73A21.23,21.23,0,0,1,8.15,1.62a1,1,0,0,0,0-1.34A1,1,0,0,0,6.8.28a23.3,23.3,0,0,0,0,32.9,1,1,0,0,0,1.35,0,1,1,0,0,0,0-1.35A21.21,21.21,0,0,1,1.9,16.73Z"/><path class="live-1" d="M39.7.28a.95.95,0,0,0-1.34,1.34,21.4,21.4,0,0,1,0,30.21,1,1,0,0,0,0,1.35,1,1,0,0,0,1.34,0A23.29,23.29,0,0,0,39.7.28Z"/><path class="live-1" d="M14.16,6.69A1,1,0,0,0,13.88,6a.92.92,0,0,0-.67-.27.94.94,0,0,0-.67.27,15.17,15.17,0,0,0,0,21.43,1,1,0,0,0,1.62-.67.91.91,0,0,0-.28-.67,13.28,13.28,0,0,1,0-18.74A1,1,0,0,0,14.16,6.69Z"/><path class="live-1" d="M34,6a1,1,0,0,0-.67-.27,1,1,0,0,0-.67.27,1,1,0,0,0,0,1.35,13.26,13.26,0,0,1,0,18.74.93.93,0,0,0-.28.67,1,1,0,0,0,.95.95.93.93,0,0,0,.67-.28A15.17,15.17,0,0,0,34,6Z"/><path class="live-1" d="M23.25,9.69A7,7,0,0,0,20.15,23a6.6,6.6,0,0,0,1.07.42,6.5,6.5,0,0,0,1.08.24,7.55,7.55,0,0,0,1.9,0,6.5,6.5,0,0,0,1.08-.24,7,7,0,0,0-2-13.77Zm2.62,11.45a5.06,5.06,0,0,1-2.62.72,5.14,5.14,0,0,1-1.62-.26,5,5,0,0,1-1-.46,5.14,5.14,0,1,1,5.23,0Z"/></g></g></svg>
