<svg xmlns="http://www.w3.org/2000/svg" viewBox="0 0 333.13 38.79"><defs><style>.liveon-1{fill:#dadada;}</style></defs><g id="Camada_2" data-name="Camada 2"><g id="Camada_1-2" data-name="Camada 1"><circle class="liveon-1" cx="19.39" cy="19.39" r="19.39"/><path class="liveon-1" d="M53.86,31.24l8.4-23.8h5.95l8.4,23.8H70.13L68.7,26.83H61.24l-1.55,4.41Zm8.88-9h4.52l-2.19-6.57H65Z"/><path class="liveon-1" d="M78,19.37a13.77,13.77,0,0,1,1-5.58,10.51,10.51,0,0,1,6.4-6,13.16,13.16,0,0,1,8.47,0,10.52,10.52,0,0,1,6.39,6,13.94,13.94,0,0,1,1,5.58,14.08,14.08,0,0,1-1,5.6,10.94,10.94,0,0,1-2.66,3.82A10.59,10.59,0,0,1,93.91,31a13,13,0,0,1-8.47,0,10.63,10.63,0,0,1-3.74-2.19A10.94,10.94,0,0,1,79,25,13.91,13.91,0,0,1,78,19.37Zm6.41,0a8.88,8.88,0,0,0,1.36,5.19,4.83,4.83,0,0,0,7.74,0,9,9,0,0,0,1.36-5.19,8.53,8.53,0,0,0-1.36-5.12,5,5,0,0,0-7.74,0A8.46,8.46,0,0,0,84.44,19.37Z"/><path class="liveon-1" d="M114.42,7.53h6.41L125.59,23h.06l5-15.41H137l-8.07,23.8h-6.47Z"/><path class="liveon-1" d="M140.65,31.24V7.53h6.41V31.24Z"/><path class="liveon-1" d="M151.05,7.53h6.41L162.21,23h.07l5-15.41h6.33l-8.07,23.8h-6.47Z"/><path class="liveon-1" d="M174.7,19.37a13.94,13.94,0,0,1,1-5.58,10.49,10.49,0,0,1,6.41-6,13.13,13.13,0,0,1,8.46,0A10.63,10.63,0,0,1,194.32,10a10.78,10.78,0,0,1,2.65,3.8,13.94,13.94,0,0,1,1,5.58,14.08,14.08,0,0,1-1,5.6,11.05,11.05,0,0,1-2.65,3.82A10.63,10.63,0,0,1,190.58,31a13,13,0,0,1-8.46,0,10.58,10.58,0,0,1-3.75-2.19A10.94,10.94,0,0,1,175.71,25,14.08,14.08,0,0,1,174.7,19.37Zm6.41,0a8.88,8.88,0,0,0,1.36,5.19,4.83,4.83,0,0,0,7.74,0,8.88,8.88,0,0,0,1.36-5.19,8.46,8.46,0,0,0-1.36-5.12,5,5,0,0,0-7.74,0A8.46,8.46,0,0,0,181.11,19.37Z"/><path class="liveon-1" d="M210.14,31.24l8.4-23.8h6l8.4,23.8h-6.48L225,26.83h-7.46L216,31.24Zm8.88-9h4.52l-2.19-6.57h-.06Z"/><path class="liveon-1" d="M234.31,19.29a16,16,0,0,1,.75-5,10.73,10.73,0,0,1,2.17-3.85A9.61,9.61,0,0,1,240.71,8a12.08,12.08,0,0,1,4.72-.86,15.19,15.19,0,0,1,3.21.33A8.12,8.12,0,0,1,253.78,11a13.25,13.25,0,0,1,1.65,3.83l-5.85,1.64a6.83,6.83,0,0,0-1.76-3.16,3.62,3.62,0,0,0-2.42-.89,4.88,4.88,0,0,0-1.71.32,3.64,3.64,0,0,0-1.52,1.1,5.87,5.87,0,0,0-1,2.08,11.37,11.37,0,0,0-.4,3.29,11.23,11.23,0,0,0,.55,3.92,5.83,5.83,0,0,0,1.31,2.18,3.64,3.64,0,0,0,1.62,1,6,6,0,0,0,1.5.23,4.44,4.44,0,0,0,2.59-.74,4.49,4.49,0,0,0,1.57-2h-3.45V19H256v12.2h-5V28.05h-.08a3.34,3.34,0,0,1-.57,1.08,5.58,5.58,0,0,1-1.2,1.17,7.78,7.78,0,0,1-1.79,1,6.58,6.58,0,0,1-2.39.41,11.45,11.45,0,0,1-4.86-.93,8.76,8.76,0,0,1-3.28-2.6,10.81,10.81,0,0,1-1.87-3.92A19.71,19.71,0,0,1,234.31,19.29Z"/><path class="liveon-1" d="M260.43,19.37a13.94,13.94,0,0,1,1-5.58,10.49,10.49,0,0,1,6.41-6,13.13,13.13,0,0,1,8.46,0,10.46,10.46,0,0,1,6.39,6,13.94,13.94,0,0,1,1,5.58,14.08,14.08,0,0,1-1,5.6,10.92,10.92,0,0,1-2.65,3.82A10.63,10.63,0,0,1,276.31,31a13,13,0,0,1-8.46,0,10.58,10.58,0,0,1-3.75-2.19A10.94,10.94,0,0,1,261.44,25,14.08,14.08,0,0,1,260.43,19.37Zm6.41,0a8.88,8.88,0,0,0,1.36,5.19,4.83,4.83,0,0,0,7.74,0,8.88,8.88,0,0,0,1.36-5.19,8.46,8.46,0,0,0-1.36-5.12,5,5,0,0,0-7.74,0A8.46,8.46,0,0,0,266.84,19.37Z"/><path class="liveon-1" d="M288.27,31.24V7.53h9.32a19.19,19.19,0,0,1,4.13.41,8.54,8.54,0,0,1,3.11,1.31,5.87,5.87,0,0,1,1.95,2.39,8.66,8.66,0,0,1,.68,3.62,7.51,7.51,0,0,1-1.19,4.46,7,7,0,0,1-3.56,2.45l5,9.07h-6.81L296.35,23h-1.74v8.23Zm6.34-13.11h2.74a5.33,5.33,0,0,0,2.88-.6,2.36,2.36,0,0,0,.89-2.12,2.3,2.3,0,0,0-.89-2.09,5.33,5.33,0,0,0-2.88-.6h-2.74Z"/><path class="liveon-1" d="M310.38,31.24l8.39-23.8h6l8.4,23.8h-6.48l-1.43-4.41h-7.46l-1.55,4.41Zm8.88-9h4.52l-2.19-6.57h-.06Z"/></g></g></svg>
