<svg xmlns="http://www.w3.org/2000/svg" xmlns:xlink="http://www.w3.org/1999/xlink" viewBox="0 0 342.34 43.39"><defs><style>.marca-bot-1,.marca-bot-3{fill:#fff;}.marca-bot-2,.marca-bot-3{fill-rule:evenodd;}.marca-bot-2{fill:url(#linear-gradient);}.marca-bot-4{fill:#0071bb;}.marca-bot-5{fill:#fbba00;}.marca-bot-6{fill:#dadada;stroke:#dadada;stroke-miterlimit:10;stroke-width:0.71px;}</style><linearGradient id="linear-gradient" x1="310.7" y1="6.05" x2="310.7" y2="37.34" gradientUnits="userSpaceOnUse"><stop offset="0" stop-color="#00b8f1"/><stop offset="0.2" stop-color="#00a2e0"/><stop offset="0.51" stop-color="#0087cc"/><stop offset="0.79" stop-color="#0077bf"/><stop offset="1" stop-color="#0071bb"/></linearGradient></defs><g id="Camada_2" data-name="Camada 2"><g id="Camada_1-2" data-name="Camada 1"><path class="marca-bot-1" d="M170.66,26.94V19.09h-2.92V16.82h8.57v2.27h-2.92v7.85Zm6.83-10.12h2.73v3.76h3.37V16.82h2.74V26.94h-2.74V22.85h-3.37v4.09h-2.73Zm10.6,10.12V16.82h7.22v2.27h-4.49v1.64H194v2.14h-3.2v1.87h4.72v2.2Zm12.74,0V16.82h4.25c1.69,0,3.68.26,3.68,2.49a2.17,2.17,0,0,1-1.91,2.31v0A2.27,2.27,0,0,1,209,24.14c0,2.2-2,2.8-3.76,2.8Zm2.68-6.09h1.3c1,0,1.35-.38,1.35-1s-.36-1-1.32-1h-1.33Zm0,4h1.37c1,0,1.46-.4,1.46-1.09s-.45-1.06-1.49-1.06h-1.34Zm6.84,2.05V16.82h7.23v2.27h-4.49v1.64h3.2v2.14h-3.2v1.87h4.72v2.2Zm8.2-2.23,2-1.26A3.12,3.12,0,0,0,223.23,25c.84,0,1.47-.25,1.47-.88s-.81-.89-1.81-1.13c-1.65-.43-3.86-.85-3.86-3.15,0-2.07,1.56-3.2,3.86-3.2a5.2,5.2,0,0,1,4.24,2l-1.83,1.51a3.45,3.45,0,0,0-2.42-1.28c-.78,0-1.18.26-1.18.74,0,.67.8.92,1.79,1.17,1.66.39,3.88.9,3.88,3.17,0,1.61-1.14,3.22-4.26,3.22A5,5,0,0,1,218.55,24.71Zm12.21,2.23V19.09h-2.91V16.82h8.56v2.27H233.5v7.85Zm10.34,0V16.82h4c2.6,0,4.19.86,4.19,3.3a2.76,2.76,0,0,1-2,2.95l2.15,3.87h-2.9l-2-3.51h-.75v3.51Zm2.68-5.59H245c1.12,0,1.61-.32,1.61-1.17S246.08,19,245,19h-1.18Zm6.68,1.53V16.82h2.73v6.05c0,1.39.46,2,1.55,2s1.53-.63,1.53-2V16.82H259v6.06c0,2.68-1.29,4.22-4.25,4.22S250.46,25.56,250.46,22.88Zm10.18,4.06V16.82h2.7l3.71,5.68h0V16.82h2.51V26.94h-2.53l-3.88-5.66h0v5.66Z"/><polyline class="marca-bot-2" points="279.07 37.34 311.04 37.34 342.33 6.05 279.07 6.05 279.07 37.34"/><path class="marca-bot-3" d="M316.62,11.93h-6.23v14.8L305,11.93h-5.4l-4.64,12.38c-.5-3.12-3.73-4.2-6.27-5-1.67-.54-3.45-1.33-3.44-2.21,0-.72,1-1.38,2.82-1.28A10,10,0,0,1,292.58,17l2.16-3.77a16.82,16.82,0,0,0-7.05-1.67h0a8.55,8.55,0,0,0-6.22,2.27A5.24,5.24,0,0,0,280,17.51a4.85,4.85,0,0,0,2.13,4.34,14.62,14.62,0,0,0,4.24,1.94c1.73.54,3.14,1,3.12,2a1.47,1.47,0,0,1-.41,1,2.76,2.76,0,0,1-2,.63,8.61,8.61,0,0,1-5.16-1.48L280,29.73A14.28,14.28,0,0,0,287,31.61h.32a8.56,8.56,0,0,0,5.36-1.8l.23-.2-.63,1.67H298l.95-2.89a10.27,10.27,0,0,0,3.32.53,10.5,10.5,0,0,0,3.25-.5l.91,2.86h9.23v-6h2c4.87,0,7.74-2.47,7.74-6.62C325.36,14.05,322.57,11.93,316.62,11.93ZM302.22,24.6a5.69,5.69,0,0,1-2-.35l2-6.23h0l1.94,6.25A5.84,5.84,0,0,1,302.22,24.6ZM317,21h-1.37V16H317c1.83,0,3.29.61,3.29,2.48S318.81,21,317,21"/><path class="marca-bot-4" d="M318.63,35.28a1.64,1.64,0,1,1,1.65,1.7A1.64,1.64,0,0,1,318.63,35.28Zm1.65,2a2,2,0,1,0-2.06-2A2,2,0,0,0,320.28,37.31Zm-.43-1.87h.4l.62,1h.4l-.67-1a.62.62,0,0,0,.61-.65c0-.45-.28-.66-.83-.66h-.88v2.33h.35Zm0-.3v-.72h.48c.24,0,.5,0,.5.34s-.26.38-.56.38Z"/><path class="marca-bot-1" d="M0,25.05l1.87-1.11a3.32,3.32,0,0,0,3,1.91c1.14,0,2-.42,2-1.29s-.8-1.21-2.28-1.62c-2-.56-4.09-1.08-4.09-3.43,0-2.1,1.63-3.36,4.05-3.36A5,5,0,0,1,9,18.46L7.29,19.77a3.36,3.36,0,0,0-2.77-1.6c-1,0-1.62.46-1.62,1.13,0,.89.83,1.21,2.31,1.62,2,.53,4.07,1.15,4.07,3.48,0,1.8-1.37,3.41-4.5,3.41A5,5,0,0,1,0,25.05ZM9.73,27.6l4-11.28h2.35L20,27.6H17.53l-.83-2.5H12.87L12,27.6Zm3.75-4.3h2.64l-1.29-3.82h0Zm7.8,4.3V16.37h4.09C27.76,16.37,30,17,30,20s-2.37,3.65-4.62,3.65H23.74v4Zm2.46-5.91h1.69c1.53,0,2.11-.59,2.11-1.66s-.56-1.65-2.11-1.65H23.74ZM34.81,22c0-3.9,2.26-5.81,5.1-5.81a4.21,4.21,0,0,1,4.55,3.54l-2.34.68c-.36-1.29-.91-2.17-2.23-2.17-1.7,0-2.61,1.44-2.61,3.76s.94,3.86,2.64,3.86c1.32,0,2-.84,2.37-2.37l2.32.52c-.55,2.26-1.88,3.84-4.7,3.84S34.81,25.91,34.81,22Zm10.67,1.6a3.86,3.86,0,0,1,4.14-4.22,3.86,3.86,0,0,1,4.13,4.22,3.86,3.86,0,0,1-4.13,4.2A3.87,3.87,0,0,1,45.48,23.55Zm5.83,0c0-1.35-.48-2.44-1.69-2.44s-1.7,1-1.7,2.44S48.38,26,49.62,26,51.31,25,51.31,23.56Zm3.63,4V19.49h2.44v1.28a3.48,3.48,0,0,1,2.8-1.44,2.12,2.12,0,0,1,2.35,2.35v5.9H60.1V22.45c0-.73-.27-1.11-1-1.11a2.75,2.75,0,0,0-1.77.81v5.43Zm8.77-4a3.87,3.87,0,0,1,4.09-4.22,3.35,3.35,0,0,1,3.52,2.47l-2,.68c-.32-1-.79-1.36-1.5-1.36-1,0-1.61.83-1.61,2.44,0,1.44.45,2.48,1.58,2.48.65,0,1.24-.35,1.59-1.45l2,.7a3.66,3.66,0,0,1-3.66,2.46C65.79,27.75,63.71,26.69,63.71,23.55ZM72.6,25.4V19.49H75v5.19c0,.73.27,1.13,1,1.13A2.77,2.77,0,0,0,77.76,25v-5.5H80.2v8.09H77.76V26.32A3.5,3.5,0,0,1,75,27.75,2.12,2.12,0,0,1,72.6,25.4ZM82,27.58V19.49h2.44v1.35h0a3.06,3.06,0,0,1,2.73-1.51h.08l0,2.17a5.56,5.56,0,0,0-.64-.05,2.73,2.73,0,0,0-2.16,1.11v5Z"/><path class="marca-bot-5" d="M102.5,25.11a3.09,3.09,0,1,1,2.18-5.28l1.61-1.6a5.31,5.31,0,0,0-3.79-1.58,5.37,5.37,0,1,0,3.79,9.16l-1.61-1.61a3.08,3.08,0,0,1-2.18.91"/><path class="marca-bot-5" d="M107,20.66A1.36,1.36,0,1,0,108.36,22,1.36,1.36,0,0,0,107,20.66"/><path class="marca-bot-5" d="M92.87,32.1H113.1V11.86H92.87Zm2.26-2.26V14.13h15.71V29.84Z"/><line class="marca-bot-6" x1="138.23" x2="138.23" y2="43.39"/></g></g></svg>
