<svg xmlns="http://www.w3.org/2000/svg" viewBox="0 0 319.21 319.22"><defs><style>.pesquisa-1{fill:#dadada;}</style></defs><g id="Camada_2" data-name="Camada 2"><g id="Camada_1-2" data-name="Camada 1"><path class="pesquisa-1" d="M312.22,278.62,248,214.41l-4.53,4.53-15.72-15.73a126.72,126.72,0,1,0-24.55,24.55l15.72,15.73L214.41,248l64.21,64.21a23.76,23.76,0,1,0,33.6-33.6ZM191.67,191.78a92.08,92.08,0,1,1,0-130.22,92.1,92.1,0,0,1,0,130.22Z"/><path class="pesquisa-1" d="M104.44,170.06a15,15,0,0,1-21.16,0,61.39,61.39,0,0,1,0-86.66,15,15,0,1,1,21.16,21.15,31.41,31.41,0,0,0,0,44.35,15,15,0,0,1,0,21.16Z"/></g></g></svg>