<svg xmlns="http://www.w3.org/2000/svg" viewBox="0 0 76.33 76.33"><defs><style>.share-1{fill:#f0ab00;}</style></defs><g id="Camada_2" data-name="Camada 2"><g id="Camada_1-2" data-name="Camada 1"><path class="share-1" d="M76.33,38.77V64.41A12,12,0,0,1,64.4,76.33H11.93A11.94,11.94,0,0,1,0,64.41V11.93A11.94,11.94,0,0,1,11.93,0H46.06a3,3,0,1,1,0,6H11.93a6,6,0,0,0-6,6V64.41a6,6,0,0,0,6,6H64.4a6,6,0,0,0,6-6V38.77a3,3,0,1,1,6,0ZM69.48,17a2.95,2.95,0,0,1,0,4.2l-12,11.89a3,3,0,0,0,4.2,4.23l12-11.89a8.91,8.91,0,0,0,0-12.66L61.73.87a3,3,0,1,0-4.2,4.23Zm-6.42,2a3,3,0,0,0-3-3A40.25,40.25,0,0,0,19.83,56.21v2.23a3,3,0,0,0,6,0V56.21A34.33,34.33,0,0,1,60.08,21.92a3,3,0,0,0,3-3Z"/></g></g></svg>
