<svg xmlns="http://www.w3.org/2000/svg" viewBox="0 0 43.14 43.14"><defs><style>.videos-1{fill:#dadada;}</style></defs><g id="Camada_2" data-name="Camada 2"><g id="Camada_1-2" data-name="Camada 1"><path class="videos-1" d="M20.4,27.33l6.93-5a.86.86,0,0,0,0-1.39l-6.93-5a.86.86,0,0,0-1.37.69V26.63A.87.87,0,0,0,20.4,27.33Z"/><path class="videos-1" d="M36.83,6.32a21.57,21.57,0,1,0,6.31,15.25A21.42,21.42,0,0,0,36.83,6.32ZM21.57,41.77a20.2,20.2,0,1,1,20.2-20.2A20.22,20.22,0,0,1,21.57,41.77Z"/></g></g></svg>
